<svg version="1.1" id="Layer_1" xmlns="http://www.w3.org/2000/svg" xmlns:xlink="http://www.w3.org/1999/xlink" x="0px" y="0px"
	 width="100%" viewBox="0 0 1024 1024" enable-background="new 0 0 1024 1024" xml:space="preserve">
<path fill="#FEFEFE" opacity="1.000000" stroke="none" 
	d="
M469.000000,1025.000000 
	C312.666656,1025.000000 156.833328,1025.000000 1.000000,1025.000000 
	C1.000000,683.666687 1.000000,342.333344 1.000000,1.000000 
	C342.333344,1.000000 683.666687,1.000000 1025.000000,1.000000 
	C1025.000000,342.333344 1025.000000,683.666687 1025.000000,1025.000000 
	C839.833313,1025.000000 654.666687,1025.000000 469.000000,1025.000000 
M371.059845,731.497864 
	C370.998322,730.680359 370.936798,729.862915 371.133026,728.382446 
	C374.090729,726.972839 377.048401,725.563293 380.941132,724.354065 
	C381.329803,725.857422 381.956085,727.344849 382.058441,728.867493 
	C382.281097,732.179688 381.971893,735.546875 382.429108,738.814758 
	C382.616638,740.154846 384.001831,741.932129 385.240967,742.362549 
	C386.688293,742.865356 388.571320,742.113953 391.404694,741.767212 
	C384.974182,737.381531 384.139954,734.236572 386.002991,725.502197 
	C387.569427,724.990356 389.135895,724.478516 389.722778,724.286743 
	C387.536774,721.635925 385.492126,719.156433 383.532349,716.779907 
	C382.525574,718.496887 381.242004,720.685852 379.142365,722.590881 
	C375.664917,722.934265 372.187469,723.277649 367.709167,723.719849 
	C367.709167,728.695496 367.656036,734.543945 367.781311,740.388611 
	C367.795807,741.063721 368.802185,741.717590 369.348724,742.381348 
	C369.890289,741.701416 370.862732,741.042664 370.897552,740.337708 
	C371.035278,737.547607 370.879364,734.743042 371.059845,731.497864 
M545.956360,363.965668 
	C557.218689,375.429108 561.861023,389.064972 561.225952,405.206055 
	C560.512634,423.337067 561.027649,441.518311 561.099915,459.677338 
	C561.132874,467.949066 567.381226,474.037476 575.698669,474.154541 
	C584.249207,474.274902 589.958679,469.026154 590.001099,460.400970 
	C590.117493,436.764648 590.834473,413.090027 589.758240,389.501556 
	C588.829346,369.142670 578.492126,353.017761 561.949646,340.156738 
	C545.307678,325.750183 525.749939,321.035858 504.270294,322.999054 
	C468.295471,326.287048 437.164246,358.544830 436.233643,394.123352 
	C435.671692,415.607056 436.059753,437.117767 436.206787,458.615082 
	C436.224182,461.160583 436.903839,463.994232 438.165222,466.181885 
	C441.512512,471.987183 447.922913,474.111969 454.655945,472.207153 
	C460.866699,470.450134 464.661804,465.402435 464.697998,458.357483 
	C464.803314,437.860992 464.136322,417.335114 465.028931,396.875549 
	C465.864105,377.732635 476.390411,364.067749 493.469635,355.950714 
	C510.072601,348.060059 526.164612,350.117004 541.270569,360.465179 
	C542.766846,361.490204 544.365356,362.365814 545.956360,363.965668 
M513.615662,581.742493 
	C525.357849,580.406799 535.495056,574.825439 545.271790,568.901489 
	C578.864685,548.546753 606.628113,521.746399 630.251648,490.524872 
	C649.924561,464.524567 664.461731,436.331238 668.365417,403.363159 
	C672.066711,372.104767 658.272095,336.306183 624.696594,322.426819 
	C619.884949,320.437775 617.196533,317.919464 615.781372,312.591797 
	C612.953857,301.946808 603.750916,295.311981 592.582458,294.417206 
	C583.535950,293.692444 574.215088,299.142456 569.776367,307.802185 
	C565.238281,316.655701 566.091492,325.386322 571.482788,333.372162 
	C577.490356,342.270721 586.553650,346.490448 596.975647,344.653046 
	C603.997131,343.415192 609.253418,345.574646 614.805237,348.708801 
	C632.567566,358.735992 640.714355,374.393494 639.700684,394.259857 
	C638.418945,419.379822 628.412170,441.660126 614.437317,462.185791 
	C600.705811,482.354065 584.536560,500.446259 566.161682,516.510864 
	C550.217102,530.450745 533.772949,543.657104 512.270813,549.775208 
	C506.426300,546.978638 500.267853,544.690002 494.788116,541.303223 
	C458.657623,518.972656 428.709045,490.224762 406.321472,454.004700 
	C395.535706,436.554688 387.853363,417.792664 386.263000,397.029907 
	C385.083496,381.630615 388.990936,367.696686 400.420807,356.965302 
	C409.021118,348.890503 418.872131,343.501770 431.741302,344.745972 
	C447.818085,346.300293 460.875397,332.500702 459.483765,316.654205 
	C458.422516,304.569641 449.524689,295.646912 437.485901,294.594757 
	C424.988495,293.502472 413.099518,301.297241 410.216187,313.318054 
	C409.100037,317.971313 406.835358,319.912506 402.682098,321.786560 
	C376.982941,333.382660 361.858124,353.346313 358.088379,381.286194 
	C355.153503,403.038361 360.443268,423.654602 368.749695,443.607086 
	C382.665588,477.033752 404.980865,504.383728 430.913696,529.062622 
	C451.299500,548.462646 473.448792,565.445984 499.165619,577.277893 
	C503.454376,579.251099 508.263306,580.093628 513.615662,581.742493 
M498.098816,428.500610 
	C498.079529,452.830627 498.036591,477.160675 498.053406,501.490662 
	C498.059509,510.373566 504.036835,516.729126 512.312134,516.831360 
	C520.878235,516.937134 527.001465,510.994568 527.040039,502.010284 
	C527.168640,472.054626 527.211670,442.098022 527.127991,412.142273 
	C527.101013,402.481537 521.751648,397.038147 512.949768,397.033234 
	C504.377411,397.028473 498.316254,403.296326 498.123505,412.503387 
	C498.018921,417.500549 498.101135,422.501648 498.098816,428.500610 
M243.388794,691.891296 
	C243.388794,669.263550 243.388794,646.635742 243.388794,623.685486 
	C238.505249,623.685486 234.275269,623.685486 229.481705,623.685486 
	C229.481705,633.043640 229.481705,642.127563 229.481705,651.773499 
	C220.144196,651.773499 211.349319,651.531433 202.576874,651.870178 
	C197.808823,652.054260 196.093964,650.644226 196.365311,645.725525 
	C196.764664,638.486389 196.468323,631.208923 196.468323,623.913635 
	C191.442230,623.913635 187.205231,623.913635 182.827271,623.913635 
	C182.827271,647.030823 182.827271,669.796204 182.827271,692.718018 
	C187.389328,692.718018 191.647232,692.718018 196.477844,692.718018 
	C196.477844,682.886169 196.477844,673.303711 196.477844,663.446411 
	C207.628601,663.446411 218.204895,663.446411 229.443527,663.446411 
	C229.443527,668.510437 229.443527,673.290588 229.443527,678.070740 
	C229.443527,682.864136 229.443527,687.657593 229.443527,692.607361 
	C234.297729,692.607361 238.575378,692.607361 243.388794,691.891296 
M568.044312,678.414062 
	C571.399170,685.080566 576.191284,690.261047 583.615784,692.173279 
	C591.492188,694.201904 599.093933,693.648682 605.708008,687.964539 
	C606.804810,692.934448 610.157654,693.798340 619.359741,691.705688 
	C619.359741,668.443359 619.359741,645.110474 619.359741,621.618958 
	C614.878540,621.618958 610.787415,621.618958 606.053955,621.618958 
	C606.053955,629.847717 606.053955,637.841187 606.053955,646.125427 
	C604.927795,645.781921 604.444824,645.712158 604.036926,645.498901 
	C592.755798,639.601257 581.515503,640.441101 573.411621,647.802856 
	C565.600281,654.898804 563.412842,666.472229 568.044312,678.414062 
M525.519348,676.019653 
	C526.685486,676.019043 527.885681,676.200256 529.012451,675.989441 
	C539.712463,673.987549 546.803528,677.499084 549.223206,688.735413 
	C549.520203,690.114502 550.974365,692.145325 552.088196,692.282471 
	C555.752441,692.733459 559.506775,692.452087 563.943726,692.452087 
	C563.202454,689.709167 562.936096,687.910706 562.245605,686.293335 
	C554.792542,668.836609 547.306213,651.393982 539.758301,633.978027 
	C535.466431,624.075012 535.407410,624.211548 524.675415,624.190430 
	C521.721252,624.184570 520.207520,625.132019 519.088623,627.868408 
	C514.867615,638.191711 510.392151,648.410583 506.061676,658.689514 
	C501.431702,669.679382 496.857880,680.692810 492.222443,691.784790 
	C502.531128,693.957764 505.538940,693.420654 507.188629,687.065552 
	C509.676270,677.482300 515.309509,674.300232 525.519348,676.019653 
M473.683624,689.871338 
	C474.360748,690.775452 474.983032,692.404602 475.724335,692.460693 
	C479.323486,692.732971 482.954498,692.583618 487.033386,692.583618 
	C487.033386,682.162903 487.165222,672.364868 487.004700,662.571655 
	C486.711304,644.671814 472.145905,636.122375 456.149689,644.347351 
	C454.801575,645.040588 453.438293,645.704285 451.272980,646.785828 
	C451.272980,637.631409 451.272980,629.535889 451.272980,621.381104 
	C446.545288,621.381104 442.316437,621.381104 438.119720,621.381104 
	C438.119720,645.309448 438.119720,668.887390 438.119720,692.692505 
	C442.511871,692.692505 446.551453,692.692505 451.073700,692.692505 
	C451.073700,683.043518 450.989410,673.742065 451.101349,664.442993 
	C451.185303,657.469116 456.306122,652.569763 463.192383,652.584900 
	C469.673676,652.599121 473.397400,656.586304 473.532867,663.994507 
	C473.685089,672.321716 473.634521,680.652649 473.683624,689.871338 
M267.398834,643.830444 
	C259.000092,648.247070 253.651947,654.932129 253.086914,664.582458 
	C251.860443,685.529480 274.839020,699.920959 294.698792,690.790710 
	C303.325134,686.824890 303.536957,685.846741 297.233002,678.700317 
	C296.500793,677.870239 295.629211,677.163086 294.698181,676.281372 
	C289.145599,681.928223 282.872375,684.326294 275.510620,681.199280 
	C271.368225,679.439697 268.211365,676.474792 266.730896,670.930603 
	C280.490417,670.930603 293.347504,670.930603 306.184540,670.930603 
	C305.833923,647.475952 289.104218,635.735413 267.398834,643.830444 
M783.115051,641.578125 
	C768.268250,644.256897 759.931458,653.378357 759.856018,667.026489 
	C759.788025,679.323120 769.170410,690.044800 782.238953,692.604614 
	C796.823425,695.461365 808.996094,688.840210 813.779114,675.448730 
	C818.035278,663.532349 813.434692,650.520630 801.735474,644.981201 
	C796.444092,642.475769 789.934448,642.543274 783.115051,641.578125 
M357.718842,658.022522 
	C357.122589,651.651306 353.771179,646.984863 348.126221,644.409180 
	C336.119720,638.930664 324.603363,641.612366 313.228271,646.634949 
	C315.890106,655.526184 317.032013,655.920959 324.779755,653.497803 
	C328.487244,652.338135 332.607605,651.831848 336.486389,652.041199 
	C342.448975,652.362976 345.178101,656.434509 344.410126,663.372620 
	C341.546295,663.372620 338.559692,663.130127 335.627747,663.427063 
	C330.689514,663.927185 325.597351,664.157349 320.909119,665.601990 
	C312.458252,668.205994 308.966492,677.560791 313.982513,684.878113 
	C316.326385,688.297302 320.397308,691.152405 324.304352,692.743835 
	C331.224915,695.562805 337.956665,693.097717 344.117706,689.449097 
	C346.136627,693.117432 350.788605,693.847168 357.748474,691.788513 
	C357.748474,680.852417 357.748474,669.885925 357.718842,658.022522 
M733.769836,673.398132 
	C734.902344,673.668091 736.286011,673.619324 737.116089,674.273254 
	C738.941284,675.710938 740.486816,677.503906 742.146484,679.151794 
	C740.378540,680.435730 738.680237,681.836975 736.809753,682.948303 
	C736.018188,683.418457 734.828552,683.520203 733.881409,683.378235 
	C727.436279,682.412415 721.007568,681.336853 713.839722,680.178040 
	C713.435181,681.507568 712.293457,683.968872 712.074402,686.509705 
	C711.960510,687.831055 713.162109,690.132324 714.304260,690.558899 
	C723.902832,694.143677 733.748901,695.061584 743.640381,691.777710 
	C751.075256,689.309326 754.845398,684.311890 754.795044,677.561768 
	C754.748291,671.285156 750.755310,666.644104 743.152893,664.416992 
	C738.687561,663.108887 734.021423,662.424622 729.653320,660.874634 
	C727.762268,660.203613 725.529846,658.267395 725.099792,656.504089 
	C724.822083,655.365417 727.296326,653.113098 728.978455,652.074646 
	C730.402405,651.195435 732.533997,650.864868 734.223511,651.125977 
	C739.226990,651.898804 744.166748,653.084351 749.576538,654.200378 
	C750.320740,651.318726 751.206421,647.889221 752.390320,643.304871 
	C745.562195,642.515686 739.328003,641.030090 733.179626,641.326355 
	C728.254211,641.563782 722.774597,642.952942 718.696167,645.606445 
	C708.746338,652.079895 710.162048,665.112793 721.000305,669.852234 
	C724.760742,671.496582 728.967102,672.121033 733.769836,673.398132 
M633.756042,659.882690 
	C637.159485,668.021484 641.063354,675.995789 643.809448,684.350647 
	C646.041870,691.142761 649.577026,693.761719 656.775940,693.035950 
	C660.539551,692.656494 662.281616,691.590637 663.638855,688.208435 
	C667.668030,678.168457 672.021301,668.258118 676.274719,658.308594 
	C678.537354,653.015869 680.855347,647.746826 683.494995,641.669067 
	C680.481140,641.669067 678.351868,641.879883 676.280029,641.624573 
	C672.168762,641.117798 670.025513,642.758606 668.601379,646.696960 
	C666.226807,653.263733 663.234863,659.607239 660.500854,666.043884 
	C658.928284,669.746216 657.351746,673.446899 655.291687,678.289001 
	C653.852234,675.245789 652.940247,673.506775 652.190369,671.700500 
	C648.552124,662.937378 645.036926,654.121826 641.268372,645.415588 
	C640.643738,643.972595 639.097351,642.126709 637.772888,641.943726 
	C634.254028,641.457642 630.623718,641.778625 626.379517,641.778625 
	C628.962463,648.147766 631.199768,653.664551 633.756042,659.882690 
M423.103027,652.691284 
	C428.806671,650.807861 424.725861,646.475464 426.038757,643.155579 
	C421.434296,642.855042 417.399658,642.591736 412.958923,642.301880 
	C412.958923,638.501892 412.958923,635.405151 412.958923,632.033936 
	C408.080902,632.033936 403.685974,632.033936 398.747864,632.033936 
	C398.747864,635.567078 398.747864,638.800049 398.747864,642.089844 
	C395.945526,642.355896 393.675964,642.571350 391.465088,642.781250 
	C391.465088,646.189514 391.465088,649.226685 391.465088,652.373291 
	C394.461670,652.609253 397.023285,652.810974 399.889343,653.036621 
	C399.889343,661.218872 399.788208,668.852661 399.913788,676.482788 
	C400.088867,687.119812 405.424408,692.801514 416.040283,693.508606 
	C419.156433,693.716125 422.362671,693.378845 425.460114,692.875610 
	C430.509430,692.055420 431.739838,688.615540 428.210663,684.898254 
	C427.030701,683.655334 424.849152,682.831665 423.089111,682.764221 
	C415.877106,682.487915 413.578705,680.449463 413.353760,673.219849 
	C413.234894,669.399414 413.271118,665.572449 413.310516,661.749146 
	C413.421356,650.993774 412.164581,652.867493 423.103027,652.691284 
M370.819794,622.762939 
	C370.819794,646.004211 370.819794,669.245483 370.819794,692.486572 
	C375.627289,692.486572 379.662811,692.486572 383.998901,692.486572 
	C383.998901,668.491699 383.998901,644.924988 383.998901,620.747131 
	C379.498962,621.129822 375.284912,621.488220 370.819794,622.762939 
M849.792969,641.145630 
	C845.882507,642.837463 841.971985,644.529297 837.830994,646.320801 
	C837.428955,644.993042 836.973389,643.488342 836.598938,642.251709 
	C832.376160,642.251709 828.496948,642.251709 824.594482,642.251709 
	C824.594482,659.294067 824.594482,675.860901 824.594482,692.463989 
	C829.112793,692.463989 833.312805,692.463989 837.915405,692.463989 
	C837.915405,682.869263 837.830139,673.743042 837.943604,664.619263 
	C838.027771,657.855896 842.215210,653.890686 848.966187,653.858826 
	C850.269409,653.852661 851.572632,653.857910 853.478333,653.857910 
	C853.478333,650.254944 853.662781,646.786438 853.347412,643.364075 
	C853.269470,642.518555 851.567383,641.822693 849.792969,641.145630 
M702.387085,684.358765 
	C702.387085,670.268555 702.387085,656.178284 702.387085,641.880798 
	C697.735291,641.880798 693.542847,641.880798 689.315796,641.880798 
	C689.315796,658.894104 689.315796,675.471619 689.315796,692.341614 
	C693.641235,692.341614 697.710327,692.341614 702.386719,692.341614 
	C702.386719,689.867188 702.386719,687.589600 702.387085,684.358765 
M607.307312,732.513428 
	C607.307312,728.842041 607.307312,725.170654 607.307312,722.765930 
	C603.931824,722.526489 601.843262,722.651794 599.896545,722.185425 
	C595.321655,721.089478 591.245972,721.583557 588.172424,725.413696 
	C585.297119,728.996826 585.007629,733.120911 587.049255,737.108704 
	C589.000977,740.921082 592.707825,742.195312 596.736633,741.842896 
	C599.092590,741.636841 601.373718,740.575500 604.768738,739.583191 
	C603.757996,742.179443 603.344299,745.452454 602.236633,745.707153 
	C597.274353,746.848206 592.114380,747.129761 586.763367,747.752075 
	C589.950500,751.861511 594.826904,751.339172 599.371643,750.673340 
	C603.309021,750.096436 606.658691,747.983582 607.064026,743.423523 
	C607.357178,740.126282 607.245850,736.793030 607.307312,732.513428 
M339.676544,733.973877 
	C338.345734,736.916138 337.014923,739.858398 335.684113,742.800598 
	C336.243408,743.181702 336.802734,743.562805 337.362030,743.943909 
	C338.361328,742.531128 339.704346,741.246094 340.287018,739.678467 
	C341.429199,736.605347 343.151062,735.042236 346.594604,735.593994 
	C348.210907,735.852844 349.929657,735.791138 351.561249,735.571899 
	C355.329987,735.065552 357.900085,736.008850 359.088379,740.071960 
	C359.458099,741.335938 361.351501,742.154297 362.547394,743.176697 
	C362.959900,742.757202 363.372437,742.337708 363.784943,741.918213 
	C359.345001,732.451599 354.905029,722.985046 350.465088,713.518433 
	C349.870300,713.520874 349.275513,713.523254 348.680725,713.525635 
	C345.772797,720.105286 342.864899,726.684937 339.676544,733.973877 
M697.088013,619.338013 
	C690.442566,619.542358 686.927368,622.424866 687.044739,627.573486 
	C687.145935,632.007202 689.918884,635.211914 694.250122,635.607849 
	C698.550232,636.000977 702.205750,634.901367 703.748535,630.323364 
	C705.330505,625.629028 703.320007,622.035828 697.088013,619.338013 
M688.851501,740.652893 
	C692.776062,743.790649 697.103638,744.004333 701.478882,741.981506 
	C702.492126,741.512939 702.945740,739.833862 704.208069,737.841980 
	C693.292419,740.969849 690.633789,740.198547 688.895691,733.393066 
	C694.731934,733.393066 700.376038,733.393066 706.020203,733.393066 
	C706.355652,732.823303 706.691040,732.253540 707.026489,731.683777 
	C704.401245,728.588684 702.290161,724.682556 699.017761,722.608276 
	C695.115601,720.134888 689.815796,722.277405 687.159302,726.000427 
	C684.081299,730.314026 684.471008,735.071716 688.851501,740.652893 
M543.667542,724.279663 
	C540.260559,728.908020 540.073914,733.938110 543.049438,738.556641 
	C545.832581,742.876648 549.949036,743.575623 554.401733,742.363281 
	C556.240112,741.862854 557.750000,740.156006 559.409241,738.997803 
	C559.105652,738.623230 558.802002,738.248596 558.498413,737.874023 
	C546.727234,740.004883 545.857727,739.699707 545.907410,732.858521 
	C550.757263,732.858521 555.625610,732.858521 560.490295,732.858521 
	C560.292908,722.782959 552.986816,718.971130 543.667542,724.279663 
M629.393555,741.191101 
	C630.199036,740.247070 631.004456,739.303040 632.456116,737.601685 
	C618.349426,739.534973 617.599304,739.322144 616.938477,733.213806 
	C622.215759,733.213806 627.450195,733.213806 632.637146,733.213806 
	C633.053162,725.761780 629.806213,721.866821 623.572510,721.726196 
	C617.421204,721.587463 612.944092,726.138794 613.072327,732.400452 
	C613.254517,741.294861 619.643799,745.045044 629.393555,741.191101 
M464.084564,741.428406 
	C463.967041,736.553955 464.697052,731.461914 463.516113,726.860413 
	C462.061737,721.193481 453.598602,719.770630 449.466217,723.983887 
	C448.674011,724.791626 448.490295,726.196106 447.635071,728.275085 
	C456.854553,723.220032 458.944275,723.639893 460.957886,730.781738 
	C458.709015,730.781738 456.644348,730.586487 454.630249,730.822754 
	C450.560883,731.300110 447.147827,734.801880 447.694458,737.879578 
	C448.500610,742.418762 452.017059,742.883789 455.682800,742.757690 
	C458.277557,742.668579 460.861694,742.271057 464.084564,741.428406 
M641.889709,739.970398 
	C641.915039,737.145996 642.072632,734.315186 641.935913,731.498657 
	C641.710266,726.850769 644.405701,725.225403 648.413269,725.235291 
	C652.441956,725.245300 654.431702,727.573975 654.458008,731.573059 
	C654.476562,734.397339 654.356323,737.227539 654.513000,740.043152 
	C654.570129,741.070435 655.248474,742.063171 655.643433,743.071716 
	C656.246155,742.962463 656.848938,742.853271 657.451660,742.744080 
	C657.677734,737.042603 659.158691,731.197266 656.031982,725.721497 
	C654.006714,722.174622 650.419373,721.349304 646.451538,722.149536 
	C644.217346,722.600220 641.949951,722.885986 638.678894,723.408813 
	C638.678894,728.636658 638.297729,735.045105 638.882812,741.364136 
	C639.091492,743.618286 641.208252,743.208008 641.889709,739.970398 
M501.861816,726.901733 
	C501.880127,731.227844 501.794220,735.558777 501.995300,739.876343 
	C502.041443,740.866943 503.074738,741.811523 503.653717,742.777283 
	C504.156860,741.735779 505.017670,740.719299 505.092560,739.647827 
	C505.277557,737.000793 505.208771,734.322144 505.048737,731.667847 
	C504.757446,726.836426 508.125458,725.597412 511.727325,725.407898 
	C515.489990,725.209900 518.075989,727.124023 518.020386,731.416626 
	C517.981567,734.411316 517.901733,737.418335 518.143799,740.395142 
	C518.207153,741.173950 519.402466,741.860718 520.077881,742.589722 
	C520.546326,741.838928 521.383179,741.105164 521.418701,740.334473 
	C521.563965,737.180359 521.588440,734.008667 521.429260,730.854980 
	C521.115417,724.634766 516.278992,721.023010 510.156342,722.212280 
	C508.593597,722.515808 506.858551,722.988770 505.408417,722.605469 
	C501.898773,721.677856 501.809479,723.682007 501.861816,726.901733 
M411.964417,713.337830 
	C410.008636,714.655823 407.648163,715.637634 406.201691,717.378723 
	C404.480286,719.450684 403.543610,722.174744 402.045410,725.039795 
	C402.435272,725.224731 403.974548,725.954956 405.688202,726.767883 
	C405.688202,730.761047 405.552429,734.749268 405.763702,738.719055 
	C405.835266,740.063416 406.784271,741.361084 407.332275,742.680054 
	C407.864441,741.319397 408.627258,740.001343 408.887848,738.590515 
	C409.880737,733.214905 405.838318,726.405090 413.038391,723.603149 
	C411.590424,721.953613 410.300140,720.483704 409.009827,719.013855 
	C410.687347,718.000854 412.265045,716.663818 414.082184,716.104004 
	C415.071930,715.799133 416.456940,716.849670 417.683838,717.222412 
	C418.931396,717.601562 420.203735,717.898987 422.482239,718.500793 
	C420.000488,713.293884 416.382202,713.290405 411.964417,713.337830 
M664.522522,726.084717 
	C661.951660,730.482239 661.490845,734.894714 664.927307,739.018616 
	C667.866455,742.545654 673.672668,744.011780 677.639832,742.085571 
	C679.150085,741.352234 680.147827,739.563293 681.379150,738.255493 
	C681.054138,737.831787 680.729065,737.408142 680.404053,736.984497 
	C676.177124,739.771057 671.859863,741.607422 667.862793,737.143005 
	C665.395142,734.386780 665.019897,731.090271 667.315369,728.012024 
	C671.646179,722.204163 676.356506,724.832214 681.472107,727.463745 
	C680.343750,725.306824 678.979248,723.349304 677.120911,722.570862 
	C672.537964,720.651123 668.349182,721.786804 664.522522,726.084717 
M426.435455,735.767090 
	C428.632019,741.090332 433.235046,743.662048 438.681244,742.561707 
	C441.836395,741.924316 444.076324,740.493469 443.705627,736.191711 
	C442.159332,737.185852 441.128204,737.968384 439.995514,738.554565 
	C436.622925,740.300049 432.808167,740.138367 431.174683,736.920776 
	C429.919861,734.448853 430.015045,730.414734 431.174011,727.818115 
	C432.596405,724.631165 436.148346,724.395691 439.430359,726.077332 
	C440.727600,726.741943 442.103333,727.253296 443.443329,727.834473 
	C443.785034,727.181702 444.126709,726.528870 444.468414,725.876099 
	C442.284332,724.614563 440.214142,722.580994 437.894409,722.238770 
	C431.421844,721.283936 424.453033,726.215332 426.435455,735.767090 
M531.193542,733.384644 
	C531.193542,730.623901 531.193542,727.863159 531.193542,725.190186 
	C533.381775,724.932861 534.892700,724.755127 537.844666,724.407959 
	C534.861694,722.157410 533.103760,720.295654 530.944702,719.343628 
	C528.486938,718.259766 525.710754,720.759583 526.066528,723.265747 
	C526.742920,728.030945 526.991333,732.915222 528.278320,737.508911 
	C528.855713,739.569641 531.248596,741.567139 533.314331,742.598206 
	C534.552307,743.216125 536.749817,741.911743 538.515991,741.471375 
	C538.466003,740.987610 538.416016,740.503784 538.366028,740.020020 
	C535.586487,738.586731 530.167603,740.254150 531.193542,733.384644 
M472.128021,739.043701 
	C472.647827,740.364441 473.167664,741.685120 473.687469,743.005859 
	C474.340149,742.840149 474.992859,742.674500 475.645538,742.508789 
	C475.645538,734.156006 475.719330,725.801941 475.570984,717.451782 
	C475.546967,716.099243 474.536682,714.764282 473.982269,713.421204 
	C473.368469,714.704102 472.257904,715.973877 472.223755,717.271973 
	C472.040985,724.225769 472.126587,731.186584 472.128021,739.043701 
M566.090576,739.026367 
	C566.661133,740.186951 567.231628,741.347473 567.802185,742.508057 
	C568.360291,741.336853 569.382202,740.173096 569.401184,738.993225 
	C569.523865,731.378540 569.488281,723.759094 569.328186,716.144897 
	C569.307373,715.155945 568.273743,714.188416 567.709167,713.210999 
	C567.182190,714.232361 566.218933,715.245056 566.198364,716.276611 
	C566.052795,723.560120 566.100769,730.847412 566.090576,739.026367 
M494.784454,729.531250 
	C494.578339,725.941895 494.372223,722.352539 494.183472,719.065491 
	C493.164062,721.056274 491.463043,722.958679 491.294800,724.988159 
	C490.884918,729.932739 491.084473,734.940552 491.291382,739.912354 
	C491.329651,740.832214 492.552979,741.702759 493.229340,742.596069 
	C493.760071,741.721069 494.696594,740.869141 494.748047,739.966797 
	C494.927185,736.823730 494.799896,733.663208 494.784454,729.531250 
M576.644165,729.629395 
	C576.639893,732.769470 576.475342,735.921875 576.716553,739.042969 
	C576.803345,740.165649 577.866577,741.212891 578.484192,742.294617 
	C578.992554,741.274719 579.884644,740.274719 579.938904,739.231140 
	C580.118774,735.770264 580.202271,732.276672 579.916870,728.829163 
	C579.734558,726.627014 578.835388,724.484131 578.257690,722.314697 
	C577.717468,724.440430 577.177307,726.566223 576.644165,729.629395 
M420.953766,730.568665 
	C420.953766,727.790527 420.953766,725.012329 420.953766,720.855896 
	C419.052002,722.491394 418.206573,722.870483 418.187592,723.287231 
	C417.924042,729.065247 417.734558,734.847900 417.663391,740.631165 
	C417.657043,741.148193 418.815491,742.202209 419.058136,742.101807 
	C419.786499,741.800110 420.821930,741.081116 420.860657,740.469421 
	C421.048737,737.499084 420.950256,734.510620 420.953766,730.568665 
M394.762817,729.756470 
	C394.767120,733.217346 394.665710,736.683960 394.850983,740.135132 
	C394.896576,740.984680 395.876129,741.784058 396.426331,742.606567 
	C396.959167,741.753113 397.913147,740.918335 397.951935,740.042908 
	C398.119568,736.260010 398.195587,732.453308 397.940430,728.679871 
	C397.817230,726.858337 396.887634,725.091431 396.323212,723.299744 
	C395.803314,725.149231 395.283417,726.998779 394.762817,729.756470 
z"/>
<path fill="#6EB1B9" opacity="1.000000" stroke="none" 
	d="
M512.966797,549.874695 
	C533.772949,543.657104 550.217102,530.450745 566.161682,516.510864 
	C584.536560,500.446259 600.705811,482.354065 614.437317,462.185791 
	C628.412170,441.660126 638.418945,419.379822 639.700684,394.259857 
	C640.714355,374.393494 632.567566,358.735992 614.805237,348.708801 
	C609.253418,345.574646 603.997131,343.415192 596.975647,344.653046 
	C586.553650,346.490448 577.490356,342.270721 571.482788,333.372162 
	C566.091492,325.386322 565.238281,316.655701 569.776367,307.802185 
	C574.215088,299.142456 583.535950,293.692444 592.582458,294.417206 
	C603.750916,295.311981 612.953857,301.946808 615.781372,312.591797 
	C617.196533,317.919464 619.884949,320.437775 624.696594,322.426819 
	C658.272095,336.306183 672.066711,372.104767 668.365417,403.363159 
	C664.461731,436.331238 649.924561,464.524567 630.251648,490.524872 
	C606.628113,521.746399 578.864685,548.546753 545.271790,568.901489 
	C535.495056,574.825439 525.357849,580.406799 513.232056,581.173218 
	C512.887878,570.360840 512.927368,560.117798 512.966797,549.874695 
z"/>
<path fill="#636261" opacity="1.000000" stroke="none" 
	d="
M512.618774,549.824951 
	C512.927368,560.117798 512.887878,570.360840 512.840149,581.031250 
	C508.263306,580.093628 503.454376,579.251099 499.165619,577.277893 
	C473.448792,565.445984 451.299500,548.462646 430.913696,529.062622 
	C404.980865,504.383728 382.665588,477.033752 368.749695,443.607086 
	C360.443268,423.654602 355.153503,403.038361 358.088379,381.286194 
	C361.858124,353.346313 376.982941,333.382660 402.682098,321.786560 
	C406.835358,319.912506 409.100037,317.971313 410.216187,313.318054 
	C413.099518,301.297241 424.988495,293.502472 437.485901,294.594757 
	C449.524689,295.646912 458.422516,304.569641 459.483765,316.654205 
	C460.875397,332.500702 447.818085,346.300293 431.741302,344.745972 
	C418.872131,343.501770 409.021118,348.890503 400.420807,356.965302 
	C388.990936,367.696686 385.083496,381.630615 386.263000,397.029907 
	C387.853363,417.792664 395.535706,436.554688 406.321472,454.004700 
	C428.709045,490.224762 458.657623,518.972656 494.788116,541.303223 
	C500.267853,544.690002 506.426300,546.978638 512.618774,549.824951 
z"/>
<path fill="#636361" opacity="1.000000" stroke="none" 
	d="
M545.916443,363.310791 
	C544.365356,362.365814 542.766846,361.490204 541.270569,360.465179 
	C526.164612,350.117004 510.072601,348.060059 493.469635,355.950714 
	C476.390411,364.067749 465.864105,377.732635 465.028931,396.875549 
	C464.136322,417.335114 464.803314,437.860992 464.697998,458.357483 
	C464.661804,465.402435 460.866699,470.450134 454.655945,472.207153 
	C447.922913,474.111969 441.512512,471.987183 438.165222,466.181885 
	C436.903839,463.994232 436.224182,461.160583 436.206787,458.615082 
	C436.059753,437.117767 435.671692,415.607056 436.233643,394.123352 
	C437.164246,358.544830 468.295471,326.287048 504.270294,322.999054 
	C525.749939,321.035858 545.307678,325.750183 561.907837,340.744385 
	C560.179077,343.129547 558.243469,344.754486 556.853210,346.757904 
	C553.083923,352.189697 549.546082,357.782074 545.916443,363.310791 
z"/>
<path fill="#6FB2BA" opacity="1.000000" stroke="none" 
	d="
M545.936401,363.638245 
	C549.546082,357.782074 553.083923,352.189697 556.853210,346.757904 
	C558.243469,344.754486 560.179077,343.129547 562.067993,341.033508 
	C578.492126,353.017761 588.829346,369.142670 589.758240,389.501556 
	C590.834473,413.090027 590.117493,436.764648 590.001099,460.400970 
	C589.958679,469.026154 584.249207,474.274902 575.698669,474.154541 
	C567.381226,474.037476 561.132874,467.949066 561.099915,459.677338 
	C561.027649,441.518311 560.512634,423.337067 561.225952,405.206055 
	C561.861023,389.064972 557.218689,375.429108 545.936401,363.638245 
z"/>
<path fill="#6FB2B8" opacity="1.000000" stroke="none" 
	d="
M498.098938,428.000793 
	C498.101135,422.501648 498.018921,417.500549 498.123505,412.503387 
	C498.316254,403.296326 504.377411,397.028473 512.949768,397.033234 
	C521.751648,397.038147 527.101013,402.481537 527.127991,412.142273 
	C527.211670,442.098022 527.168640,472.054626 527.040039,502.010284 
	C527.001465,510.994568 520.878235,516.937134 512.312134,516.831360 
	C504.036835,516.729126 498.059509,510.373566 498.053406,501.490662 
	C498.036591,477.160675 498.079529,452.830627 498.098938,428.000793 
z"/>
<path fill="#646262" opacity="1.000000" stroke="none" 
	d="
M243.120911,692.249329 
	C238.575378,692.607361 234.297729,692.607361 229.443527,692.607361 
	C229.443527,687.657593 229.443527,682.864136 229.443527,678.070740 
	C229.443527,673.290588 229.443527,668.510437 229.443527,663.446411 
	C218.204895,663.446411 207.628601,663.446411 196.477844,663.446411 
	C196.477844,673.303711 196.477844,682.886169 196.477844,692.718018 
	C191.647232,692.718018 187.389328,692.718018 182.827271,692.718018 
	C182.827271,669.796204 182.827271,647.030823 182.827271,623.913635 
	C187.205231,623.913635 191.442230,623.913635 196.468323,623.913635 
	C196.468323,631.208923 196.764664,638.486389 196.365311,645.725525 
	C196.093964,650.644226 197.808823,652.054260 202.576874,651.870178 
	C211.349319,651.531433 220.144196,651.773499 229.481705,651.773499 
	C229.481705,642.127563 229.481705,633.043640 229.481705,623.685486 
	C234.275269,623.685486 238.505249,623.685486 243.388794,623.685486 
	C243.388794,646.635742 243.388794,669.263550 243.120911,692.249329 
z"/>
<path fill="#686665" opacity="1.000000" stroke="none" 
	d="
M567.901855,678.061035 
	C563.412842,666.472229 565.600281,654.898804 573.411621,647.802856 
	C581.515503,640.441101 592.755798,639.601257 604.036926,645.498901 
	C604.444824,645.712158 604.927795,645.781921 606.053955,646.125427 
	C606.053955,637.841187 606.053955,629.847717 606.053955,621.618958 
	C610.787415,621.618958 614.878540,621.618958 619.359741,621.618958 
	C619.359741,645.110474 619.359741,668.443359 619.359741,691.705688 
	C610.157654,693.798340 606.804810,692.934448 605.708008,687.964539 
	C599.093933,693.648682 591.492188,694.201904 583.615784,692.173279 
	C576.191284,690.261047 571.399170,685.080566 567.901855,678.061035 
M601.924683,655.510925 
	C595.881897,651.412048 590.596985,651.167847 585.215637,654.739014 
	C580.472473,657.886597 578.096558,664.048096 579.277527,670.138733 
	C580.501404,676.450745 585.006470,681.098999 591.038757,682.273987 
	C597.405334,683.514038 604.237488,679.586609 605.857849,673.345154 
	C607.469543,667.136963 607.206116,661.097046 601.924683,655.510925 
z"/>
<path fill="#686665" opacity="1.000000" stroke="none" 
	d="
M525.025513,676.019836 
	C515.309509,674.300232 509.676270,677.482300 507.188629,687.065552 
	C505.538940,693.420654 502.531128,693.957764 492.222443,691.784790 
	C496.857880,680.692810 501.431702,669.679382 506.061676,658.689514 
	C510.392151,648.410583 514.867615,638.191711 519.088623,627.868408 
	C520.207520,625.132019 521.721252,624.184570 524.675415,624.190430 
	C535.407410,624.211548 535.466431,624.075012 539.758301,633.978027 
	C547.306213,651.393982 554.792542,668.836609 562.245605,686.293335 
	C562.936096,687.910706 563.202454,689.709167 563.943726,692.452087 
	C559.506775,692.452087 555.752441,692.733459 552.088196,692.282471 
	C550.974365,692.145325 549.520203,690.114502 549.223206,688.735413 
	C546.803528,677.499084 539.712463,673.987549 529.012451,675.989441 
	C527.885681,676.200256 526.685486,676.019043 525.025513,676.019836 
M526.570862,640.160156 
	C523.221680,648.394043 519.872559,656.627869 516.282959,665.452759 
	C524.505371,665.452759 531.964783,665.452759 539.782043,665.452759 
	C536.137146,656.622925 532.688843,648.200623 529.112976,639.832947 
	C528.953491,639.459778 527.633301,639.582642 526.570862,640.160156 
z"/>
<path fill="#686665" opacity="1.000000" stroke="none" 
	d="
M473.677917,689.426636 
	C473.634521,680.652649 473.685089,672.321716 473.532867,663.994507 
	C473.397400,656.586304 469.673676,652.599121 463.192383,652.584900 
	C456.306122,652.569763 451.185303,657.469116 451.101349,664.442993 
	C450.989410,673.742065 451.073700,683.043518 451.073700,692.692505 
	C446.551453,692.692505 442.511871,692.692505 438.119720,692.692505 
	C438.119720,668.887390 438.119720,645.309448 438.119720,621.381104 
	C442.316437,621.381104 446.545288,621.381104 451.272980,621.381104 
	C451.272980,629.535889 451.272980,637.631409 451.272980,646.785828 
	C453.438293,645.704285 454.801575,645.040588 456.149689,644.347351 
	C472.145905,636.122375 486.711304,644.671814 487.004700,662.571655 
	C487.165222,672.364868 487.033386,682.162903 487.033386,692.583618 
	C482.954498,692.583618 479.323486,692.732971 475.724335,692.460693 
	C474.983032,692.404602 474.360748,690.775452 473.677917,689.426636 
z"/>
<path fill="#686665" opacity="1.000000" stroke="none" 
	d="
M267.752686,643.692017 
	C289.104218,635.735413 305.833923,647.475952 306.184540,670.930603 
	C293.347504,670.930603 280.490417,670.930603 266.730896,670.930603 
	C268.211365,676.474792 271.368225,679.439697 275.510620,681.199280 
	C282.872375,684.326294 289.145599,681.928223 294.698181,676.281372 
	C295.629211,677.163086 296.500793,677.870239 297.233002,678.700317 
	C303.536957,685.846741 303.325134,686.824890 294.698792,690.790710 
	C274.839020,699.920959 251.860443,685.529480 253.086914,664.582458 
	C253.651947,654.932129 259.000092,648.247070 267.752686,643.692017 
M285.974060,652.133972 
	C275.683258,648.600647 267.009888,653.438110 267.366669,662.343201 
	C275.873596,662.343201 284.366821,662.343201 294.522186,662.343201 
	C291.298828,658.295288 288.984436,655.388794 285.974060,652.133972 
z"/>
<path fill="#676566" opacity="1.000000" stroke="none" 
	d="
M783.546265,641.510864 
	C789.934448,642.543274 796.444092,642.475769 801.735474,644.981201 
	C813.434692,650.520630 818.035278,663.532349 813.779114,675.448730 
	C808.996094,688.840210 796.823425,695.461365 782.238953,692.604614 
	C769.170410,690.044800 759.788025,679.323120 759.856018,667.026489 
	C759.931458,653.378357 768.268250,644.256897 783.546265,641.510864 
M793.007019,653.059448 
	C786.940002,650.732605 781.543762,651.677124 777.166199,656.608398 
	C773.075500,661.216553 772.396790,669.152893 775.429138,674.869751 
	C777.996033,679.709167 782.076843,682.052368 787.524414,682.247986 
	C792.904358,682.441223 796.748291,680.010925 799.429993,675.524719 
	C803.924011,668.006836 801.557739,658.913147 793.007019,653.059448 
z"/>
<path fill="#696866" opacity="1.000000" stroke="none" 
	d="
M357.733643,658.470947 
	C357.748474,669.885925 357.748474,680.852417 357.748474,691.788513 
	C350.788605,693.847168 346.136627,693.117432 344.117706,689.449097 
	C337.956665,693.097717 331.224915,695.562805 324.304352,692.743835 
	C320.397308,691.152405 316.326385,688.297302 313.982513,684.878113 
	C308.966492,677.560791 312.458252,668.205994 320.909119,665.601990 
	C325.597351,664.157349 330.689514,663.927185 335.627747,663.427063 
	C338.559692,663.130127 341.546295,663.372620 344.410126,663.372620 
	C345.178101,656.434509 342.448975,652.362976 336.486389,652.041199 
	C332.607605,651.831848 328.487244,652.338135 324.779755,653.497803 
	C317.032013,655.920959 315.890106,655.526184 313.228271,646.634949 
	C324.603363,641.612366 336.119720,638.930664 348.126221,644.409180 
	C353.771179,646.984863 357.122589,651.651306 357.733643,658.470947 
M330.400879,684.227783 
	C340.691528,685.708984 346.238739,680.189819 343.067535,670.956238 
	C338.435394,671.327881 333.633698,671.471985 328.912048,672.163086 
	C324.614685,672.792053 322.873688,676.671204 325.204987,680.343933 
	C326.191711,681.898499 328.139252,682.843140 330.400879,684.227783 
z"/>
<path fill="#696866" opacity="1.000000" stroke="none" 
	d="
M733.369812,673.304688 
	C728.967102,672.121033 724.760742,671.496582 721.000305,669.852234 
	C710.162048,665.112793 708.746338,652.079895 718.696167,645.606445 
	C722.774597,642.952942 728.254211,641.563782 733.179626,641.326355 
	C739.328003,641.030090 745.562195,642.515686 752.390320,643.304871 
	C751.206421,647.889221 750.320740,651.318726 749.576538,654.200378 
	C744.166748,653.084351 739.226990,651.898804 734.223511,651.125977 
	C732.533997,650.864868 730.402405,651.195435 728.978455,652.074646 
	C727.296326,653.113098 724.822083,655.365417 725.099792,656.504089 
	C725.529846,658.267395 727.762268,660.203613 729.653320,660.874634 
	C734.021423,662.424622 738.687561,663.108887 743.152893,664.416992 
	C750.755310,666.644104 754.748291,671.285156 754.795044,677.561768 
	C754.845398,684.311890 751.075256,689.309326 743.640381,691.777710 
	C733.748901,695.061584 723.902832,694.143677 714.304260,690.558899 
	C713.162109,690.132324 711.960510,687.831055 712.074402,686.509705 
	C712.293457,683.968872 713.435181,681.507568 713.839722,680.178040 
	C721.007568,681.336853 727.436279,682.412415 733.881409,683.378235 
	C734.828552,683.520203 736.018188,683.418457 736.809753,682.948303 
	C738.680237,681.836975 740.378540,680.435730 742.146484,679.151794 
	C740.486816,677.503906 738.941284,675.710938 737.116089,674.273254 
	C736.286011,673.619324 734.902344,673.668091 733.369812,673.304688 
z"/>
<path fill="#686665" opacity="1.000000" stroke="none" 
	d="
M633.596558,659.531982 
	C631.199768,653.664551 628.962463,648.147766 626.379517,641.778625 
	C630.623718,641.778625 634.254028,641.457642 637.772888,641.943726 
	C639.097351,642.126709 640.643738,643.972595 641.268372,645.415588 
	C645.036926,654.121826 648.552124,662.937378 652.190369,671.700500 
	C652.940247,673.506775 653.852234,675.245789 655.291687,678.289001 
	C657.351746,673.446899 658.928284,669.746216 660.500854,666.043884 
	C663.234863,659.607239 666.226807,653.263733 668.601379,646.696960 
	C670.025513,642.758606 672.168762,641.117798 676.280029,641.624573 
	C678.351868,641.879883 680.481140,641.669067 683.494995,641.669067 
	C680.855347,647.746826 678.537354,653.015869 676.274719,658.308594 
	C672.021301,668.258118 667.668030,678.168457 663.638855,688.208435 
	C662.281616,691.590637 660.539551,692.656494 656.775940,693.035950 
	C649.577026,693.761719 646.041870,691.142761 643.809448,684.350647 
	C641.063354,675.995789 637.159485,668.021484 633.596558,659.531982 
z"/>
<path fill="#686665" opacity="1.000000" stroke="none" 
	d="
M422.641663,652.692322 
	C412.164581,652.867493 413.421356,650.993774 413.310516,661.749146 
	C413.271118,665.572449 413.234894,669.399414 413.353760,673.219849 
	C413.578705,680.449463 415.877106,682.487915 423.089111,682.764221 
	C424.849152,682.831665 427.030701,683.655334 428.210663,684.898254 
	C431.739838,688.615540 430.509430,692.055420 425.460114,692.875610 
	C422.362671,693.378845 419.156433,693.716125 416.040283,693.508606 
	C405.424408,692.801514 400.088867,687.119812 399.913788,676.482788 
	C399.788208,668.852661 399.889343,661.218872 399.889343,653.036621 
	C397.023285,652.810974 394.461670,652.609253 391.465088,652.373291 
	C391.465088,649.226685 391.465088,646.189514 391.465088,642.781250 
	C393.675964,642.571350 395.945526,642.355896 398.747864,642.089844 
	C398.747864,638.800049 398.747864,635.567078 398.747864,632.033936 
	C403.685974,632.033936 408.080902,632.033936 412.958923,632.033936 
	C412.958923,635.405151 412.958923,638.501892 412.958923,642.301880 
	C417.399658,642.591736 421.434296,642.855042 426.038757,643.155579 
	C424.725861,646.475464 428.806671,650.807861 422.641663,652.692322 
z"/>
<path fill="#676566" opacity="1.000000" stroke="none" 
	d="
M370.945312,622.304810 
	C375.284912,621.488220 379.498962,621.129822 383.998901,620.747131 
	C383.998901,644.924988 383.998901,668.491699 383.998901,692.486572 
	C379.662811,692.486572 375.627289,692.486572 370.819794,692.486572 
	C370.819794,669.245483 370.819794,646.004211 370.945312,622.304810 
z"/>
<path fill="#696866" opacity="1.000000" stroke="none" 
	d="
M850.202454,641.101807 
	C851.567383,641.822693 853.269470,642.518555 853.347412,643.364075 
	C853.662781,646.786438 853.478333,650.254944 853.478333,653.857910 
	C851.572632,653.857910 850.269409,653.852661 848.966187,653.858826 
	C842.215210,653.890686 838.027771,657.855896 837.943604,664.619263 
	C837.830139,673.743042 837.915405,682.869263 837.915405,692.463989 
	C833.312805,692.463989 829.112793,692.463989 824.594482,692.463989 
	C824.594482,675.860901 824.594482,659.294067 824.594482,642.251709 
	C828.496948,642.251709 832.376160,642.251709 836.598938,642.251709 
	C836.973389,643.488342 837.428955,644.993042 837.830994,646.320801 
	C841.971985,644.529297 845.882507,642.837463 850.202454,641.101807 
z"/>
<path fill="#686665" opacity="1.000000" stroke="none" 
	d="
M702.386902,684.835388 
	C702.386719,687.589600 702.386719,689.867188 702.386719,692.341614 
	C697.710327,692.341614 693.641235,692.341614 689.315796,692.341614 
	C689.315796,675.471619 689.315796,658.894104 689.315796,641.880798 
	C693.542847,641.880798 697.735291,641.880798 702.387085,641.880798 
	C702.387085,656.178284 702.387085,670.268555 702.386902,684.835388 
z"/>
<path fill="#707070" opacity="1.000000" stroke="none" 
	d="
M607.311035,732.994629 
	C607.245850,736.793030 607.357178,740.126282 607.064026,743.423523 
	C606.658691,747.983582 603.309021,750.096436 599.371643,750.673340 
	C594.826904,751.339172 589.950500,751.861511 586.763367,747.752075 
	C592.114380,747.129761 597.274353,746.848206 602.236633,745.707153 
	C603.344299,745.452454 603.757996,742.179443 604.768738,739.583191 
	C601.373718,740.575500 599.092590,741.636841 596.736633,741.842896 
	C592.707825,742.195312 589.000977,740.921082 587.049255,737.108704 
	C585.007629,733.120911 585.297119,728.996826 588.172424,725.413696 
	C591.245972,721.583557 595.321655,721.089478 599.896545,722.185425 
	C601.843262,722.651794 603.931824,722.526489 607.307312,722.765930 
	C607.307312,725.170654 607.307312,728.842041 607.311035,732.994629 
M603.626282,729.263062 
	C602.116516,725.562134 599.397156,723.844421 595.426331,724.552490 
	C591.368530,725.276001 588.471619,729.463196 589.186035,733.314392 
	C589.883728,737.075439 593.227722,739.468811 597.178223,739.034424 
	C601.958130,738.508972 604.076843,735.637085 603.626282,729.263062 
z"/>
<path fill="#707070" opacity="1.000000" stroke="none" 
	d="
M339.816772,733.619202 
	C342.864899,726.684937 345.772797,720.105286 348.680725,713.525635 
	C349.275513,713.523254 349.870300,713.520874 350.465088,713.518433 
	C354.905029,722.985046 359.345001,732.451599 363.784943,741.918213 
	C363.372437,742.337708 362.959900,742.757202 362.547394,743.176697 
	C361.351501,742.154297 359.458099,741.335938 359.088379,740.071960 
	C357.900085,736.008850 355.329987,735.065552 351.561249,735.571899 
	C349.929657,735.791138 348.210907,735.852844 346.594604,735.593994 
	C343.151062,735.042236 341.429199,736.605347 340.287018,739.678467 
	C339.704346,741.246094 338.361328,742.531128 337.362030,743.943909 
	C336.802734,743.562805 336.243408,743.181702 335.684113,742.800598 
	C337.014923,739.858398 338.345734,736.916138 339.816772,733.619202 
M353.059326,732.922913 
	C353.642334,732.083679 354.900208,731.001587 354.699646,730.444153 
	C353.318909,726.606201 351.633423,722.877930 349.546814,717.930908 
	C347.313538,723.524841 345.575623,727.877808 343.555420,732.937988 
	C347.001862,732.937988 349.592957,732.937988 353.059326,732.922913 
z"/>
<path fill="#696866" opacity="1.000000" stroke="none" 
	d="
M697.466309,619.410583 
	C703.320007,622.035828 705.330505,625.629028 703.748535,630.323364 
	C702.205750,634.901367 698.550232,636.000977 694.250122,635.607849 
	C689.918884,635.211914 687.145935,632.007202 687.044739,627.573486 
	C686.927368,622.424866 690.442566,619.542358 697.466309,619.410583 
z"/>
<path fill="#707070" opacity="1.000000" stroke="none" 
	d="
M688.584839,740.400757 
	C684.471008,735.071716 684.081299,730.314026 687.159302,726.000427 
	C689.815796,722.277405 695.115601,720.134888 699.017761,722.608276 
	C702.290161,724.682556 704.401245,728.588684 707.026489,731.683777 
	C706.691040,732.253540 706.355652,732.823303 706.020203,733.393066 
	C700.376038,733.393066 694.731934,733.393066 688.895691,733.393066 
	C690.633789,740.198547 693.292419,740.969849 704.208069,737.841980 
	C702.945740,739.833862 702.492126,741.512939 701.478882,741.981506 
	C697.103638,744.004333 692.776062,743.790649 688.584839,740.400757 
M697.966919,725.006287 
	C691.843872,724.521179 689.788818,725.866333 689.445312,730.479919 
	C693.598816,730.479919 697.744019,730.479919 703.148376,730.479919 
	C701.157349,728.174622 699.934570,726.758911 697.966919,725.006287 
z"/>
<path fill="#757472" opacity="1.000000" stroke="none" 
	d="
M543.953979,724.035706 
	C552.986816,718.971130 560.292908,722.782959 560.490295,732.858521 
	C555.625610,732.858521 550.757263,732.858521 545.907410,732.858521 
	C545.857727,739.699707 546.727234,740.004883 558.498413,737.874023 
	C558.802002,738.248596 559.105652,738.623230 559.409241,738.997803 
	C557.750000,740.156006 556.240112,741.862854 554.401733,742.363281 
	C549.949036,743.575623 545.832581,742.876648 543.049438,738.556641 
	C540.073914,733.938110 540.260559,728.908020 543.953979,724.035706 
M556.190857,728.735840 
	C555.410156,724.254822 552.161377,723.976196 548.699829,724.613159 
	C545.609497,725.181763 544.355408,727.142029 545.455383,730.768494 
	C549.022156,730.325500 552.400574,729.905823 556.190857,728.735840 
z"/>
<path fill="#707070" opacity="1.000000" stroke="none" 
	d="
M629.084351,741.404175 
	C619.643799,745.045044 613.254517,741.294861 613.072327,732.400452 
	C612.944092,726.138794 617.421204,721.587463 623.572510,721.726196 
	C629.806213,721.866821 633.053162,725.761780 632.637146,733.213806 
	C627.450195,733.213806 622.215759,733.213806 616.938477,733.213806 
	C617.599304,739.322144 618.349426,739.534973 632.456116,737.601685 
	C631.004456,739.303040 630.199036,740.247070 629.084351,741.404175 
M623.399414,730.709534 
	C625.447510,730.558105 627.495667,730.406677 629.621155,730.249512 
	C629.188416,725.705200 626.674622,724.103088 623.162598,724.327820 
	C619.889160,724.537415 617.353271,726.111023 616.772583,730.369995 
	C618.995667,730.498047 620.765442,730.600037 623.399414,730.709534 
z"/>
<path fill="#707070" opacity="1.000000" stroke="none" 
	d="
M463.767578,741.719788 
	C460.861694,742.271057 458.277557,742.668579 455.682800,742.757690 
	C452.017059,742.883789 448.500610,742.418762 447.694458,737.879578 
	C447.147827,734.801880 450.560883,731.300110 454.630249,730.822754 
	C456.644348,730.586487 458.709015,730.781738 460.957886,730.781738 
	C458.944275,723.639893 456.854553,723.220032 447.635071,728.275085 
	C448.490295,726.196106 448.674011,724.791626 449.466217,723.983887 
	C453.598602,719.770630 462.061737,721.193481 463.516113,726.860413 
	C464.697052,731.461914 463.967041,736.553955 463.767578,741.719788 
M456.573059,733.162292 
	C454.756226,734.273010 452.939362,735.383728 451.122528,736.494507 
	C451.803711,737.537659 452.533966,739.501953 453.157745,739.468689 
	C456.294006,739.301514 459.402466,738.612610 462.520691,738.106934 
	C462.566467,737.381592 462.612244,736.656189 462.658020,735.930847 
	C460.889313,735.008240 459.120636,734.085632 456.573059,733.162292 
z"/>
<path fill="#707070" opacity="1.000000" stroke="none" 
	d="
M641.889038,740.392883 
	C641.208252,743.208008 639.091492,743.618286 638.882812,741.364136 
	C638.297729,735.045105 638.678894,728.636658 638.678894,723.408813 
	C641.949951,722.885986 644.217346,722.600220 646.451538,722.149536 
	C650.419373,721.349304 654.006714,722.174622 656.031982,725.721497 
	C659.158691,731.197266 657.677734,737.042603 657.451660,742.744080 
	C656.848938,742.853271 656.246155,742.962463 655.643433,743.071716 
	C655.248474,742.063171 654.570129,741.070435 654.513000,740.043152 
	C654.356323,737.227539 654.476562,734.397339 654.458008,731.573059 
	C654.431702,727.573975 652.441956,725.245300 648.413269,725.235291 
	C644.405701,725.225403 641.710266,726.850769 641.935913,731.498657 
	C642.072632,734.315186 641.915039,737.145996 641.889038,740.392883 
z"/>
<path fill="#707070" opacity="1.000000" stroke="none" 
	d="
M501.875793,726.498596 
	C501.809479,723.682007 501.898773,721.677856 505.408417,722.605469 
	C506.858551,722.988770 508.593597,722.515808 510.156342,722.212280 
	C516.278992,721.023010 521.115417,724.634766 521.429260,730.854980 
	C521.588440,734.008667 521.563965,737.180359 521.418701,740.334473 
	C521.383179,741.105164 520.546326,741.838928 520.077881,742.589722 
	C519.402466,741.860718 518.207153,741.173950 518.143799,740.395142 
	C517.901733,737.418335 517.981567,734.411316 518.020386,731.416626 
	C518.075989,727.124023 515.489990,725.209900 511.727325,725.407898 
	C508.125458,725.597412 504.757446,726.836426 505.048737,731.667847 
	C505.208771,734.322144 505.277557,737.000793 505.092560,739.647827 
	C505.017670,740.719299 504.156860,741.735779 503.653717,742.777283 
	C503.074738,741.811523 502.041443,740.866943 501.995300,739.876343 
	C501.794220,735.558777 501.880127,731.227844 501.875793,726.498596 
z"/>
<path fill="#757472" opacity="1.000000" stroke="none" 
	d="
M412.367004,713.306396 
	C416.382202,713.290405 420.000488,713.293884 422.482239,718.500793 
	C420.203735,717.898987 418.931396,717.601562 417.683838,717.222412 
	C416.456940,716.849670 415.071930,715.799133 414.082184,716.104004 
	C412.265045,716.663818 410.687347,718.000854 409.009827,719.013855 
	C410.300140,720.483704 411.590424,721.953613 413.038391,723.603149 
	C405.838318,726.405090 409.880737,733.214905 408.887848,738.590515 
	C408.627258,740.001343 407.864441,741.319397 407.332275,742.680054 
	C406.784271,741.361084 405.835266,740.063416 405.763702,738.719055 
	C405.552429,734.749268 405.688202,730.761047 405.688202,726.767883 
	C403.974548,725.954956 402.435272,725.224731 402.045410,725.039795 
	C403.543610,722.174744 404.480286,719.450684 406.201691,717.378723 
	C407.648163,715.637634 410.008636,714.655823 412.367004,713.306396 
z"/>
<path fill="#707070" opacity="1.000000" stroke="none" 
	d="
M664.730103,725.784424 
	C668.349182,721.786804 672.537964,720.651123 677.120911,722.570862 
	C678.979248,723.349304 680.343750,725.306824 681.472107,727.463745 
	C676.356506,724.832214 671.646179,722.204163 667.315369,728.012024 
	C665.019897,731.090271 665.395142,734.386780 667.862793,737.143005 
	C671.859863,741.607422 676.177124,739.771057 680.404053,736.984497 
	C680.729065,737.408142 681.054138,737.831787 681.379150,738.255493 
	C680.147827,739.563293 679.150085,741.352234 677.639832,742.085571 
	C673.672668,744.011780 667.866455,742.545654 664.927307,739.018616 
	C661.490845,734.894714 661.951660,730.482239 664.730103,725.784424 
z"/>
<path fill="#757472" opacity="1.000000" stroke="none" 
	d="
M426.351593,735.370300 
	C424.453033,726.215332 431.421844,721.283936 437.894409,722.238770 
	C440.214142,722.580994 442.284332,724.614563 444.468414,725.876099 
	C444.126709,726.528870 443.785034,727.181702 443.443329,727.834473 
	C442.103333,727.253296 440.727600,726.741943 439.430359,726.077332 
	C436.148346,724.395691 432.596405,724.631165 431.174011,727.818115 
	C430.015045,730.414734 429.919861,734.448853 431.174683,736.920776 
	C432.808167,740.138367 436.622925,740.300049 439.995514,738.554565 
	C441.128204,737.968384 442.159332,737.185852 443.705627,736.191711 
	C444.076324,740.493469 441.836395,741.924316 438.681244,742.561707 
	C433.235046,743.662048 428.632019,741.090332 426.351593,735.370300 
z"/>
<path fill="#757472" opacity="1.000000" stroke="none" 
	d="
M531.192383,733.868713 
	C530.167603,740.254150 535.586487,738.586731 538.366028,740.020020 
	C538.416016,740.503784 538.466003,740.987610 538.515991,741.471375 
	C536.749817,741.911743 534.552307,743.216125 533.314331,742.598206 
	C531.248596,741.567139 528.855713,739.569641 528.278320,737.508911 
	C526.991333,732.915222 526.742920,728.030945 526.066528,723.265747 
	C525.710754,720.759583 528.486938,718.259766 530.944702,719.343628 
	C533.103760,720.295654 534.861694,722.157410 537.844666,724.407959 
	C534.892700,724.755127 533.381775,724.932861 531.193542,725.190186 
	C531.193542,727.863159 531.193542,730.623901 531.192383,733.868713 
z"/>
<path fill="#757472" opacity="1.000000" stroke="none" 
	d="
M379.958466,722.874817 
	C381.242004,720.685852 382.525574,718.496887 383.532349,716.779907 
	C385.492126,719.156433 387.536774,721.635925 389.722778,724.286743 
	C389.135895,724.478516 387.569427,724.990356 386.002441,725.503601 
	C384.139954,734.236572 384.974182,737.381531 391.404694,741.767212 
	C388.571320,742.113953 386.688293,742.865356 385.240967,742.362549 
	C384.001831,741.932129 382.616638,740.154846 382.429108,738.814758 
	C381.971893,735.546875 382.281097,732.179688 382.058441,728.867493 
	C381.956085,727.344849 381.329803,725.857422 380.464844,724.041016 
	C379.982025,723.443420 379.971985,723.159058 379.958466,722.874817 
z"/>
<path fill="#757472" opacity="1.000000" stroke="none" 
	d="
M472.123718,738.594360 
	C472.126587,731.186584 472.040985,724.225769 472.223755,717.271973 
	C472.257904,715.973877 473.368469,714.704102 473.982239,713.421204 
	C474.536682,714.764282 475.546967,716.099243 475.570984,717.451782 
	C475.719330,725.801941 475.645538,734.156006 475.645538,742.508789 
	C474.992859,742.674500 474.340149,742.840149 473.687469,743.005859 
	C473.167664,741.685120 472.647827,740.364441 472.123718,738.594360 
z"/>
<path fill="#707070" opacity="1.000000" stroke="none" 
	d="
M566.088745,738.579956 
	C566.100769,730.847412 566.052795,723.560120 566.198364,716.276611 
	C566.218933,715.245056 567.182190,714.232361 567.709229,713.210999 
	C568.273743,714.188416 569.307373,715.155945 569.328186,716.144897 
	C569.488281,723.759094 569.523865,731.378540 569.401184,738.993225 
	C569.382202,740.173096 568.360291,741.336853 567.802185,742.508057 
	C567.231628,741.347473 566.661133,740.186951 566.088745,738.579956 
z"/>
<path fill="#757472" opacity="1.000000" stroke="none" 
	d="
M494.786774,730.020264 
	C494.799896,733.663208 494.927185,736.823730 494.748047,739.966797 
	C494.696594,740.869141 493.760071,741.721069 493.229370,742.596069 
	C492.552979,741.702759 491.329651,740.832214 491.291382,739.912354 
	C491.084473,734.940552 490.884918,729.932739 491.294800,724.988159 
	C491.463043,722.958679 493.164062,721.056274 494.183472,719.065491 
	C494.372223,722.352539 494.578339,725.941895 494.786774,730.020264 
z"/>
<path fill="#707070" opacity="1.000000" stroke="none" 
	d="
M576.640625,729.160645 
	C577.177307,726.566223 577.717468,724.440430 578.257690,722.314697 
	C578.835388,724.484131 579.734558,726.627014 579.916870,728.829163 
	C580.202271,732.276672 580.118774,735.770264 579.938904,739.231140 
	C579.884644,740.274719 578.992554,741.274719 578.484192,742.294617 
	C577.866577,741.212891 576.803345,740.165649 576.716553,739.042969 
	C576.475342,735.921875 576.639893,732.769470 576.640625,729.160645 
z"/>
<path fill="#707070" opacity="1.000000" stroke="none" 
	d="
M420.953491,731.048584 
	C420.950256,734.510620 421.048737,737.499084 420.860657,740.469421 
	C420.821930,741.081116 419.786499,741.800110 419.058136,742.101807 
	C418.815491,742.202209 417.657043,741.148193 417.663391,740.631165 
	C417.734558,734.847900 417.924042,729.065247 418.187592,723.287231 
	C418.206573,722.870483 419.052002,722.491394 420.953766,720.855896 
	C420.953766,725.012329 420.953766,727.790527 420.953491,731.048584 
z"/>
<path fill="#757472" opacity="1.000000" stroke="none" 
	d="
M394.763184,729.302368 
	C395.283417,726.998779 395.803314,725.149231 396.323181,723.299744 
	C396.887634,725.091431 397.817230,726.858337 397.940430,728.679871 
	C398.195587,732.453308 398.119568,736.260010 397.951935,740.042908 
	C397.913147,740.918335 396.959167,741.753113 396.426331,742.606567 
	C395.876129,741.784058 394.896576,740.984680 394.850983,740.135132 
	C394.665710,736.683960 394.767120,733.217346 394.763184,729.302368 
z"/>
<path fill="#707070" opacity="1.000000" stroke="none" 
	d="
M379.550415,722.732849 
	C379.971985,723.159058 379.982025,723.443420 379.997345,723.940796 
	C377.048401,725.563293 374.090729,726.972839 370.779114,728.895752 
	C370.560913,730.253967 370.696625,731.098877 370.832336,731.943848 
	C370.879364,734.743042 371.035278,737.547607 370.897552,740.337708 
	C370.862732,741.042664 369.890289,741.701416 369.348694,742.381348 
	C368.802185,741.717590 367.795807,741.063721 367.781311,740.388611 
	C367.656036,734.543945 367.709167,728.695496 367.709167,723.719849 
	C372.187469,723.277649 375.664917,722.934265 379.550415,722.732849 
z"/>
<path fill="#757472" opacity="1.000000" stroke="none" 
	d="
M370.946106,731.720825 
	C370.696625,731.098877 370.560913,730.253967 370.650208,729.227173 
	C370.936798,729.862915 370.998322,730.680359 370.946106,731.720825 
z"/>
<path fill="#F9F9F8" opacity="1.000000" stroke="none" 
	d="
M602.195251,655.774414 
	C607.206116,661.097046 607.469543,667.136963 605.857849,673.345154 
	C604.237488,679.586609 597.405334,683.514038 591.038757,682.273987 
	C585.006470,681.098999 580.501404,676.450745 579.277527,670.138733 
	C578.096558,664.048096 580.472473,657.886597 585.215637,654.739014 
	C590.596985,651.167847 595.881897,651.412048 602.195251,655.774414 
z"/>
<path fill="#F5F5F4" opacity="1.000000" stroke="none" 
	d="
M526.712341,639.817322 
	C527.633301,639.582642 528.953491,639.459778 529.112976,639.832947 
	C532.688843,648.200623 536.137146,656.622925 539.782043,665.452759 
	C531.964783,665.452759 524.505371,665.452759 516.282959,665.452759 
	C519.872559,656.627869 523.221680,648.394043 526.712341,639.817322 
z"/>
<path fill="#F5F5F4" opacity="1.000000" stroke="none" 
	d="
M286.322052,652.308105 
	C288.984436,655.388794 291.298828,658.295288 294.522186,662.343201 
	C284.366821,662.343201 275.873596,662.343201 267.366669,662.343201 
	C267.009888,653.438110 275.683258,648.600647 286.322052,652.308105 
z"/>
<path fill="#F9F9F8" opacity="1.000000" stroke="none" 
	d="
M793.359070,653.231323 
	C801.557739,658.913147 803.924011,668.006836 799.429993,675.524719 
	C796.748291,680.010925 792.904358,682.441223 787.524414,682.247986 
	C782.076843,682.052368 777.996033,679.709167 775.429138,674.869751 
	C772.396790,669.152893 773.075500,661.216553 777.166199,656.608398 
	C781.543762,651.677124 786.940002,650.732605 793.359070,653.231323 
z"/>
<path fill="#F5F5F4" opacity="1.000000" stroke="none" 
	d="
M330.025513,684.146362 
	C328.139252,682.843140 326.191711,681.898499 325.204987,680.343933 
	C322.873688,676.671204 324.614685,672.792053 328.912048,672.163086 
	C333.633698,671.471985 338.435394,671.327881 343.067535,670.956238 
	C346.238739,680.189819 340.691528,685.708984 330.025513,684.146362 
z"/>
<path fill="#F5F5F4" opacity="1.000000" stroke="none" 
	d="
M603.721802,729.649231 
	C604.076843,735.637085 601.958130,738.508972 597.178223,739.034424 
	C593.227722,739.468811 589.883728,737.075439 589.186035,733.314392 
	C588.471619,729.463196 591.368530,725.276001 595.426331,724.552490 
	C599.397156,723.844421 602.116516,725.562134 603.721802,729.649231 
z"/>
<path fill="#F5F5F4" opacity="1.000000" stroke="none" 
	d="
M352.621704,732.930420 
	C349.592957,732.937988 347.001862,732.937988 343.555420,732.937988 
	C345.575623,727.877808 347.313538,723.524841 349.546814,717.930908 
	C351.633423,722.877930 353.318909,726.606201 354.699646,730.444153 
	C354.900208,731.001587 353.642334,732.083679 352.621704,732.930420 
z"/>
<path fill="#F5F5F4" opacity="1.000000" stroke="none" 
	d="
M698.339355,725.174683 
	C699.934570,726.758911 701.157349,728.174622 703.148376,730.479919 
	C697.744019,730.479919 693.598816,730.479919 689.445312,730.479919 
	C689.788818,725.866333 691.843872,724.521179 698.339355,725.174683 
z"/>
<path fill="#F5F5F4" opacity="1.000000" stroke="none" 
	d="
M555.984863,729.111023 
	C552.400574,729.905823 549.022156,730.325500 545.455383,730.768494 
	C544.355408,727.142029 545.609497,725.181763 548.699829,724.613159 
	C552.161377,723.976196 555.410156,724.254822 555.984863,729.111023 
z"/>
<path fill="#F5F5F4" opacity="1.000000" stroke="none" 
	d="
M622.967285,730.705750 
	C620.765442,730.600037 618.995667,730.498047 616.772583,730.369995 
	C617.353271,726.111023 619.889160,724.537415 623.162598,724.327820 
	C626.674622,724.103088 629.188416,725.705200 629.621155,730.249512 
	C627.495667,730.406677 625.447510,730.558105 622.967285,730.705750 
z"/>
<path fill="#F5F5F4" opacity="1.000000" stroke="none" 
	d="
M456.962524,733.162659 
	C459.120636,734.085632 460.889313,735.008240 462.658020,735.930847 
	C462.612244,736.656189 462.566467,737.381592 462.520691,738.106934 
	C459.402466,738.612610 456.294006,739.301514 453.157745,739.468689 
	C452.533966,739.501953 451.803711,737.537659 451.122498,736.494507 
	C452.939362,735.383728 454.756226,734.273010 456.962524,733.162659 
z"/>
</svg>